<?xml version="1.0" encoding="utf-8"?>
<!-- Generator: Adobe Illustrator 23.0.3, SVG Export Plug-In . SVG Version: 6.00 Build 0)  -->
<svg id="logo" version="1.1" id="logo_x5F_withtype_xA0_Image_1_"
	 xmlns="http://www.w3.org/2000/svg" xmlns:xlink="http://www.w3.org/1999/xlink" x="0px" y="0px" viewBox="0 0 1360.3 482.3"
	 style="enable-background:new 0 0 1360.3 482.3;" xml:space="preserve">
<style type="text/css">
	#logo .st0{fill:#212529;}
	#logo .st1{fill:none;stroke:#000000;stroke-width:0.3;}
	#logo .st2{fill:#F61A42;}
</style>
<image style="display:none;overflow:visible;" width="5668" height="3514" id="logo_x5F_withtype_xA0_Image" xlink:href="EC8BD75C.png"  transform="matrix(0.24 0 0 0.24 0 0)">
</image>
<g>
	<g>
		<path class="st0" d="M541.9,349.6l-99.1,1.7c0,0,69.8,131,237.4,131s237.5-132.7,237.5-132.7h-99.1c0,0-52.2,49.4-138.4,49.4
			S541.9,349.6,541.9,349.6z"/>
	</g>
	<line class="st1" x1="442.8" y1="295.6" x2="442.8" y2="331.6"/>
	<line class="st1" x1="388.8" y1="349.6" x2="424.8" y2="349.6"/>
	<line class="st1" x1="388.8" y1="482.3" x2="424.8" y2="482.3"/>
	<line class="st1" x1="442.8" y1="536.3" x2="442.8" y2="500.3"/>
	<line class="st1" x1="917.6" y1="295.6" x2="917.6" y2="331.6"/>
	<line class="st1" x1="971.6" y1="349.6" x2="935.6" y2="349.6"/>
	<line class="st1" x1="971.6" y1="482.3" x2="935.6" y2="482.3"/>
	<line class="st1" x1="917.6" y1="536.3" x2="917.6" y2="500.3"/>
</g>
<g>
	<g>
		<path class="st0" d="M489.4,288.2c0,0-32.9-48.7-28.5-119c4.5-70.3,42.2-119.7,42.2-119.7l-32.9-32.9c0,0-52.5,58.3-65.5,135.8
			c-13,77.5,10.6,142.6,10.6,142.6L489.4,288.2z"/>
	</g>
	<line class="st1" x1="400.8" y1="-37.3" x2="400.8" y2="-1.3"/>
	<line class="st1" x1="346.8" y1="16.7" x2="382.8" y2="16.7"/>
	<line class="st1" x1="346.8" y1="295.1" x2="382.8" y2="295.1"/>
	<line class="st1" x1="400.8" y1="349.1" x2="400.8" y2="313.1"/>
	<line class="st1" x1="503.1" y1="-37.3" x2="503.1" y2="-1.3"/>
	<line class="st1" x1="557.1" y1="16.7" x2="521.1" y2="16.7"/>
	<line class="st1" x1="557.1" y1="295.1" x2="521.1" y2="295.1"/>
	<line class="st1" x1="503.1" y1="349.1" x2="503.1" y2="313.1"/>
</g>
<g>
	<g>
		<path class="st0" d="M870.7,288.2c0,0,32.9-48.7,28.5-119C894.7,98.9,857,49.6,857,49.6l32.9-32.9c0,0,52.5,58.3,65.5,135.8
			c13,77.5-10.6,142.6-10.6,142.6L870.7,288.2z"/>
	</g>
	<line class="st1" x1="857" y1="-37.3" x2="857" y2="-1.3"/>
	<line class="st1" x1="803" y1="16.7" x2="839" y2="16.7"/>
	<line class="st1" x1="803" y1="295.1" x2="839" y2="295.1"/>
	<line class="st1" x1="857" y1="349.1" x2="857" y2="313.1"/>
	<line class="st1" x1="959.3" y1="-37.3" x2="959.3" y2="-1.3"/>
	<line class="st1" x1="1013.3" y1="16.7" x2="977.3" y2="16.7"/>
	<line class="st1" x1="1013.3" y1="295.1" x2="977.3" y2="295.1"/>
	<line class="st1" x1="959.3" y1="349.1" x2="959.3" y2="313.1"/>
</g>
<g>
	<g>
		<polygon class="st2" points="0,335.1 565.8,325.8 680.2,64.3 680.2,0 513.4,286.1 		"/>
	</g>
	<line class="st1" x1="0" y1="-54" x2="0" y2="-18"/>
	<line class="st1" x1="-54" y1="0" x2="-18" y2="0"/>
	<line class="st1" x1="-54" y1="335.1" x2="-18" y2="335.1"/>
	<line class="st1" x1="0" y1="389.1" x2="0" y2="353.1"/>
	<line class="st1" x1="680.2" y1="-54" x2="680.2" y2="-18"/>
	<line class="st1" x1="734.2" y1="0" x2="698.2" y2="0"/>
	<line class="st1" x1="734.2" y1="335.1" x2="698.2" y2="335.1"/>
	<line class="st1" x1="680.2" y1="389.1" x2="680.2" y2="353.1"/>
</g>
<g>
	<g>
		<polygon class="st2" points="1360.4,335.1 794.6,325.8 680.3,64.3 680.2,0 847,286.1 		"/>
	</g>
	<line class="st1" x1="680.2" y1="-54" x2="680.2" y2="-18"/>
	<line class="st1" x1="626.2" y1="0" x2="662.2" y2="0"/>
	<line class="st1" x1="626.2" y1="335.1" x2="662.2" y2="335.1"/>
	<line class="st1" x1="680.2" y1="389.1" x2="680.2" y2="353.1"/>
	<line class="st1" x1="1360.4" y1="-54" x2="1360.4" y2="-18"/>
	<line class="st1" x1="1414.4" y1="0" x2="1378.4" y2="0"/>
	<line class="st1" x1="1414.4" y1="335.1" x2="1378.4" y2="335.1"/>
	<line class="st1" x1="1360.4" y1="389.1" x2="1360.4" y2="353.1"/>
</g>
</svg>
