<svg xmlns="http://www.w3.org/2000/svg" xmlns:xlink="http://www.w3.org/1999/xlink" x="0" y="0" version="1.1" viewBox="0 0 1920 2130" xml:space="preserve" style="enable-background:new 0 0 1920 2130"><style type="text/css">.st0{fill:#025b00}.st1{fill:none;stroke:#bad670;stroke-width:5;stroke-miterlimit:10}.st2{fill:#22824d}.st3{fill:#48aa72}.st4{fill:#212529}.st5{fill:#f41a42}.st6{fill:#666}.st7{fill:#e5e5e5}.st8{fill:#a3a3a3}.st9{fill:#fff;stroke:#000;stroke-miterlimit:10}.st10{fill:#f61a42}.st11{fill:#f41a42;stroke:#f61a42;stroke-miterlimit:10}.st12{fill:#ffb9b7}.st13{fill:#bc2445;stroke:#f61a42;stroke-miterlimit:10}.st14{fill:#563701}.st15{fill:#cc8791}.st16{fill:#ffde83}.st17,.st18{fill:none;stroke:#000;stroke-miterlimit:10}.st18{stroke:#f61a42}.st19{fill:#fff}.st20{fill:#a0102f}.st21{fill:#8e575e}.st22{display:none}.st23{display:inline}.st24{fill:#fffc99}.st25{fill:none;stroke:#ba8502;stroke-width:3;stroke-miterlimit:10}</style><g id="plants"><path d="M128.6,1103.03c8.12-9,39.6,4.52,59.78,17.68c24.1,15.72,29.37,29.16,53.89,52.21 c23.4,22,37.59,27.62,58.1,42.1c7.64,5.4,111.33,79.93,95.99,132.2c-13.6,46.35-119.03,69.21-150.72,36.21 c-17.93-18.67,1.78-40.59-16.84-73.26c-26.39-46.3-86.25-37.81-95.15-74.1c-5.2-21.22,14.56-27,14.31-61.47 C147.67,1134.1,120.16,1112.38,128.6,1103.03z" class="st0"/><path d="M164.26,1145.53c22.73,6.04,38.1,31.94,32.51,54.79c-2.57,10.51-7.09,25.1,2.85,29.37 c2.38,1.02,5.06,1,7.66,1.1c35.4,1.43,64,29.4,83.62,58.9c19.63,29.49,34.66,62.92,61.15,86.44" class="st1"/><path d="M115.96,841.16c18.05-20.63,140.19,37.15,228.19,119.57c142.12,133.09,226.63,359.84,165.88,415.12 c-52.52,47.79-229.15-18.38-255.13-111.99c-16.96-61.1,36.56-111.2,6.74-154.09c-31.74-45.64-109.01-12.86-134.72-58.1 c-20.24-35.6,20.35-68.69,5.05-147.35C124.06,863.64,108.73,849.43,115.96,841.16z" class="st2"/><path d="M162.19,887.47c17.08,6.83,19.89,30.31,14.9,48.02s-15,34.73-13.58,53.07c2.16,28.05,29.84,46.96,56.43,56.16 s56.02,13.67,77.5,31.85c24.06,20.36,32.66,53.34,37.99,84.4c8,46.7,11.55,94.16,10.57,141.52" class="st1"/><path d="M238.9,714.86c16.21-13.79,65.01,2.98,87.57,35.37c19,27.27,6.75,47.44,28.63,79.15 c15.65,22.67,28.88,22.45,48.84,40.42c39.37,35.44,27.29,71.75,53.89,133.04c32.43,74.71,67.55,58.22,93.46,127.99 c7.24,19.48,27.57,82.27,3.37,152.41c-10.24,29.67-22.71,65.83-53,79.64c-71.63,32.68-217.91-71.28-220.6-170.2 c-1.73-63.39,62.3-99.11,43.69-147.92c-19.8-51.94-102.69-38.76-116.74-88.87c-11.95-42.63,38.46-64.2,40.43-141.79 C249.88,757.73,223.56,727.91,238.9,714.86z" class="st3"/><path d="M533.84,1313.98c1.43,4.02-6.86,4.86-11.64,3.26c-90.65-30.29-146.82-116.4-126.57-194.03 c8.07-30.95,26.69-60.04,29.98-91.57c4.05-38.74-17.24-78.62-54.86-102.81c-25.41-16.33-58.24-26.46-75.78-48.55 c-7.53-9.49-11.61-20.55-13.61-31.71c-5.26-29.35,3.82-60.23,24.87-84.52" class="st1"/><path d="M1362.63,1364.84c46.85,6.95,95.23-7.65,134.86-33.6c39.62-25.95,71.25-62.57,97.82-101.78 c79.62-117.46,116.69-270.79,68.64-404.3c-17.67-49.1-47.09-95.05-89.28-125.76c-17.15-12.49-37.29-22.58-58.5-21.95 c-25.82,0.77-49.27,17.88-62.67,39.96c-13.4,22.09-17.96,48.51-18.55,74.33c-2.22,97,46.78,186.53,82.21,276.85 c8.99,22.92,17.23,46.46,19.46,70.98c4.1,45.05-12.94,90.57-41.4,125.74c-28.46,35.17-67.58,60.62-109.31,78.09 C1378.8,1352.86,1372.24,1357.93,1362.63,1364.84z" class="st3"/><path d="M1557.07,1327.85c-14.45-19.89-32.84-33.2-50.37-47.66c-61.07-50.37-115.62-120.03-146.06-208.64 s-33.99-197.58,0.91-283.01c9.59-23.49,24.87-47.01,44.44-46.53c18.27,0.45,32.53,21.74,42.07,43.21 c27.87,62.71,35.2,137.96,48.98,208.99c13.78,71.03,37.96,144.93,85.2,179.17c11.56,8.38,24.66,14.62,32.74,28.75 c13.2,23.09,7.61,56.5,1.04,84.46c-3.42,14.57-15.3,92.04-25.49,96.26C1578.07,1388.02,1564.76,1338.43,1557.07,1327.85z" class="st0"/><path d="M1614.69,1188.63c8.46-33.3,17.97-66.73,34.74-96.72c16.77-29.99,41.58-56.6,73.4-69.55 c31.83-12.95,71.08-10.2,97.32,11.97c26.94,22.76,35.88,61.76,30.06,96.54c-11.41,68.2-69.23,117.96-125.4,158.28 c-24.12,17.31-48.62,34.22-71.33,53.38c-11.83,9.98-52.26,60.51-61.53,52.64c-15.25-12.95-1.03-83.15,1.35-100.94 C1598.04,1258.6,1605.85,1223.44,1614.69,1188.63z" class="st3"/><path d="M1568.43,1111.99c2.18-96.2-15.26-191.85-16.4-288.07c-0.44-37.12,1.86-75.54,18.48-108.74 s50.74-60.05,87.8-57.85c42.71,2.54,74.86,41.4,89.6,81.56c30.51,83.18,8.97,175.83-18.83,259.95 c-16.44,49.74-15.6,32.7-67.22,156.17c-60.21,144.02-79.23,211.4-118.43,213.91c-9.94,0.64-24.95-2.65-44.36-23.36 C1554.5,1248.07,1567.17,1167.77,1568.43,1111.99z" class="st2"/><path d="M1527.57,1166.76c-8.46-33.3-17.97-66.73-34.74-96.72c-16.77-29.99-41.58-56.6-73.4-69.55 c-31.83-12.95-71.08-10.2-97.32,11.97c-26.94,22.76-35.88,61.76-30.06,96.54c11.41,68.2,69.23,117.96,125.4,158.28 c24.12,17.31,48.62,34.22,71.33,53.38c11.83,9.98,52.26,60.51,61.53,52.64c15.25-12.95,1.03-83.15-1.35-100.94 C1544.22,1236.72,1536.41,1201.57,1527.57,1166.76z" class="st3"/><path d="M1609.1,1358.38c31.26-104.65,101.7-197.1,194.3-255.02" class="st1"/><path d="M1558.13,1328.96c31.67-99.61,72.07-196.45,99.31-297.37c27.24-100.91,41-207.94,18.22-309.96" class="st1"/><path d="M1524.75,735.09c-6.27,61.39-10.97,123.7-0.63,184.53c9.18,54,30.17,106.88,26.79,161.55" class="st1"/><path d="M1535.99,1350.56c2.23-45.73-20.26-88.92-45.66-127.01c-29.71-44.55-64.35-85.81-103.06-122.81" class="st1"/><path d="M1643.2,983.32c-5.41,0.46-9.61-4.47-12.6-9.01c-30.15-45.73-41.57-100.91-52.39-154.6" class="st1"/><path d="M1663.59,878.57c-9.32-7.6-16.04-17.88-22.08-28.28c-23.58-40.58-39.14-85.79-45.55-132.28" class="st1"/><path d="M1694.02,1008.61c16.84-34.88,32.3-70.42,46.33-106.52" class="st1"/><path d="M1711.71,850.3c10.44-32.23,16.35-65.92,17.52-99.78" class="st1"/><path d="M1667.82,1206.65c7.12-31.41,19.75-61.57,37.15-88.68" class="st1"/><path d="M1744.4,1131.12c7.85-32.3,20.48-63.44,37.36-92.09" class="st1"/><path d="M1681.83,1293.2c35.47-14.07,67.7-36.24,93.53-64.33" class="st1"/><path d="M1737.46,1194.75c29.93-6.95,58.04-21.61,80.88-42.17" class="st1"/><path d="M1467.3,711.61c13.45,28.39,30.88,54.88,51.62,78.48" class="st1"/><path d="M1477.97,935.11c4.97,15.03,15.25,28.25,28.59,36.78" class="st1"/><path d="M1523.9,1242.95c-2.99-3.33-1.86-8.51-0.55-12.78c8.1-26.48,16.2-52.97,24.3-79.45" class="st1"/></g><g id="gear"><path d="M1812,1254.16c0-16.53,0-14.28,0-30.8l-48.93-12.25c-3.23-12.03-3.97-14.78-7.18-26.81l36.25-35.09 c-8.27-14.3-7.14-12.36-15.4-26.67l-48.5,13.87c-8.81-8.81-10.82-10.82-19.63-19.63l13.87-48.5c-14.32-8.26-12.37-7.13-26.67-15.4 l-35.09,36.25c-12.03-3.22-14.78-3.96-26.81-7.18l-12.25-48.93c-16.53,0-14.28,0-30.8,0l-12.25,48.93 c-12.03,3.23-14.78,3.97-26.81,7.18l-35.09-36.25c-14.3,8.27-12.36,7.14-26.67,15.4l13.87,48.5c-8.81,8.81-10.82,10.82-19.63,19.63 l-48.5-13.87c-8.26,14.32-7.13,12.37-15.4,26.67l36.25,35.09c-3.22,12.03-3.96,14.78-7.18,26.81l-48.93,12.25 c0,16.53,0,14.28,0,30.8l48.93,12.25c3.23,12.03,3.97,14.78,7.18,26.81l-36.25,35.09c8.27,14.3,7.14,12.36,15.4,26.67l48.5-13.87 c8.81,8.81,10.82,10.82,19.63,19.63l-13.87,48.5c14.32,8.26,12.37,7.13,26.67,15.4l35.09-36.25c12.03,3.22,14.78,3.96,26.81,7.18 l12.25,48.93c16.53,0,14.28,0,30.8,0l12.25-48.93c12.03-3.23,14.78-3.97,26.81-7.18l35.09,36.25c14.3-8.27,12.36-7.14,26.67-15.4 l-13.87-48.5c8.81-8.81,10.82-10.82,19.63-19.63l48.5,13.87c8.26-14.32,7.13-12.37,15.4-26.67l-36.25-35.09 c3.22-12.03,3.96-14.78,7.18-26.81L1812,1254.16z M1606.91,1338.65c-55.53,0-100.56-45.03-100.56-100.56 c0-55.53,45.03-100.56,100.56-100.56s100.56,45.03,100.56,100.56C1707.46,1293.62,1662.44,1338.65,1606.91,1338.65z" class="st4"/><path d="M1622.45,936.22c0-11.42,0-9.87,0-21.29l-33.82-8.47c-2.23-8.31-2.74-10.22-4.97-18.53l25.06-24.25 c-5.72-9.89-4.94-8.54-10.65-18.44l-33.53,9.58c-6.09-6.09-7.48-7.48-13.57-13.57l9.58-33.53c-9.9-5.71-8.55-4.93-18.44-10.65 l-24.25,25.06c-8.31-2.22-10.22-2.73-18.53-4.97l-8.47-33.82c-11.42,0-9.87,0-21.29,0l-8.47,33.82 c-8.31,2.23-10.22,2.74-18.53,4.97l-24.25-25.06c-9.89,5.72-8.54,4.94-18.44,10.65l9.58,33.53c-6.09,6.09-7.48,7.48-13.57,13.57 l-33.53-9.58c-5.71,9.9-4.93,8.55-10.65,18.44l25.06,24.25c-2.22,8.31-2.73,10.22-4.97,18.53l-33.82,8.47c0,11.42,0,9.87,0,21.29 l33.82,8.47c2.23,8.31,2.74,10.22,4.97,18.53l-25.06,24.25c5.72,9.89,4.94,8.54,10.65,18.44l33.53-9.58 c6.09,6.09,7.48,7.48,13.57,13.57l-9.58,33.53c9.9,5.71,8.55,4.93,18.44,10.65l24.25-25.06c8.31,2.22,10.22,2.73,18.53,4.97 l8.47,33.82c11.42,0,9.87,0,21.29,0l8.47-33.82c8.31-2.23,10.22-2.74,18.53-4.97l24.25,25.06c9.89-5.72,8.54-4.94,18.44-10.65 l-9.58-33.53c6.09-6.09,7.48-7.48,13.57-13.57l33.53,9.58c5.71-9.9,4.93-8.55,10.65-18.44l-25.06-24.25 c2.22-8.31,2.73-10.22,4.97-18.53L1622.45,936.22z M1480.68,994.62c-38.38,0-69.51-31.12-69.51-69.51 c0-38.38,31.12-69.51,69.51-69.51s69.51,31.12,69.51,69.51C1550.19,963.5,1519.07,994.62,1480.68,994.62z" class="st5"/></g><g id="floor"><path d="M1813.88,1440.79c0.09,0.37,0.12,0.75,0.12,1.13c0,39.22-385.16,71.01-860.27,71.01 s-860.27-31.79-860.27-71.01c0-0.37,0.03-0.75,0.12-1.13l-0.12,0.03L92,1369.82l0.04,0.01c1.19,13.09,45.26,25.32,121.16,35.82 l0.28,0.08c0.04-0.01,0.1-0.01,0.15-0.02c150.26,20.71,424.84,34.59,738.66,34.59c314.82,0,590.16-13.96,740.1-34.79 c0.2,0.03,0.41,0.05,0.61,0.09l1.09-0.33c74.28-10.4,117.3-22.51,118.45-35.44h0.01l1.45,71.01L1813.88,1440.79z" class="st6"/><path d="M1812.56,1369.28c0,0.17-0.01,0.35-0.03,0.54c-1.15,12.92-44.17,25.04-118.45,35.44 c-0.57,0.09-1.13,0.16-1.7,0.24c-149.94,20.83-425.27,34.79-740.1,34.79c-313.82,0-588.4-13.87-738.66-34.59 c-0.15-0.02-0.28-0.04-0.42-0.05c-75.91-10.5-119.97-22.73-121.16-35.82c-0.01-0.19-0.03-0.36-0.03-0.55 c0-39.22,385.16-71.01,860.27-71.01S1812.56,1330.06,1812.56,1369.28z" class="st7"/></g><g id="desktop"><ellipse cx="955" cy="1389.5" class="st8" rx="160" ry="25.5"/><path d="M999.37,1140.11h-96.64c-9.63,0-17.44,7.81-17.44,17.44v220.93c0,9.63,7.81,17.44,17.44,17.44h96.64 c9.63,0,17.44-7.81,17.44-17.44v-220.93C1016.81,1147.92,1009,1140.11,999.37,1140.11z" class="st6"/><path d="M1496.85,636.27v536.34c0,18.3-14.83,33.13-33.13,33.13H446.68c-18.3,0-33.13-14.83-33.13-33.13V722.25 c0-28.66,0-57.32,0-85.98c0-18.3,14.83-33.14,33.13-33.14h1017.03C1482.02,603.13,1496.85,617.97,1496.85,636.27z" class="st8"/><path d="M1413.91,1168.68H494.2c-18.64,0-33.74-15.11-33.74-33.74V687.08c0-18.64,15.11-33.74,33.74-33.74h919.71 c18.64,0,33.74,15.11,33.74,33.74v447.86C1447.66,1153.57,1432.55,1168.68,1413.91,1168.68z" class="st7"/><path d="M459.85,691.4h987.2c0.2-3.52,1.23-27.25-14.61-45.91c-15.84-18.66-35.98-17.45-38.97-17.22 c-292.26,0-584.53,0-876.79,0c-2.75-0.38-25.17-3.02-42.22,17.22C458.81,664.07,459.66,687.69,459.85,691.4z" class="st6"/><path d="M745.63,571" class="st9"/><ellipse cx="1400.54" cy="661.9" class="st7" rx="8.48" ry="8.62"/><ellipse cx="1363.56" cy="661.9" class="st7" rx="8.48" ry="8.62"/><ellipse cx="1323.49" cy="661.9" class="st7" rx="8.48" ry="8.62"/><path d="M1368.49,656.42h-9.86c-0.25,0-0.46,0.22-0.46,0.47v10.03c0,0.25,0.22,0.47,0.46,0.47h9.86 c0.25,0,0.46-0.22,0.46-0.47v-10.03C1368.95,656.64,1368.73,656.42,1368.49,656.42z M1359.7,657.99h7.7v7.84h-7.7V657.99z" class="st4"/><path d="M1318.4,665.82h10.18c0.17,0,0.3,0.14,0.3,0.3v0.96c0,0.17-0.14,0.3-0.3,0.3h-10.18c-0.17,0-0.3-0.14-0.3-0.3 v-0.96C1318.1,665.96,1318.23,665.82,1318.4,665.82z" class="st4"/><path d="M1404.42,665.73l-0.45,0.42c-0.18,0.17-0.49,0.16-0.65-0.03l-2.82-3.11l-3.06,2.87 c-0.18,0.17-0.49,0.16-0.65-0.03l-0.42-0.46c-0.17-0.18-0.15-0.49,0.03-0.66l3.06-2.87l-2.82-3.11c-0.17-0.18-0.15-0.49,0.03-0.66 l0.45-0.42c0.18-0.17,0.49-0.16,0.65,0.03l2.82,3.11l3.06-2.87c0.18-0.17,0.49-0.16,0.65,0.03l0.42,0.46 c0.17,0.18,0.15,0.49-0.03,0.66l-3.06,2.87l2.82,3.11C1404.61,665.25,1404.6,665.56,1404.42,665.73z" class="st4"/><ellipse cx="1442" cy="1385.5" class="st8" rx="189" ry="31.5"/><ellipse cx="667" cy="1407" class="st8" rx="138" ry="23"/><ellipse cx="419" cy="1389.5" class="st8" rx="95" ry="25.5"/><ellipse cx="1113.5" cy="1404" class="st8" rx="57.5" ry="22"/><ellipse cx="1217" cy="1423" class="st8" rx="36" ry="8"/></g><g id="logo"><path d="M878.64,981.66l-54.77,0.94c0,0,38.58,72.4,131.2,72.4s131.26-73.34,131.26-73.34h-54.77 c0,0-28.85,27.3-76.49,27.3C907.43,1008.96,878.64,981.66,878.64,981.66z" class="st4"/><path d="M849.62,947.72c0,0-18.18-26.91-15.75-65.77c2.49-38.85,23.32-66.15,23.32-66.15l-18.18-18.18 c0,0-29.02,32.22-36.2,75.05c-7.18,42.83,5.86,78.81,5.86,78.81L849.62,947.72z" class="st4"/><path d="M1060.36,947.72c0,0,18.18-26.91,15.75-65.77c-2.49-38.85-23.32-66.1-23.32-66.1l18.18-18.18 c0,0,29.02,32.22,36.2,75.05s-5.86,78.81-5.86,78.81L1060.36,947.72z" class="st4"/><polygon points="1331 973.65 1018.3 968.51 955.13 823.98 955.07 788.45 1047.26 946.56" class="st10"/><polygon points="862.89 946.56 955.07 788.45 955.07 823.98 891.85 968.51 579.15 973.65" class="st10"/></g><g id="person_male"><path d="M336.46,810.51c2.46,2.45,5.37,4.5,8.58,5.81c-0.94-2.28-0.83-4.77,0.17-6.81c0.41-0.82,0.95-1.56,1.63-2.19 c2.94-2.72,6.86-1.88,7.2-1.8c0.11,0.01,0.22,0.01,0.31,0.01c10.85,0.45,14.52-2.12,15.89-4.51c2.22-3.91-1.37-7.89,0.9-12.6 c1.72-3.56,5.62-5.09,13.5-7.2c5.47-1.46,12.67-3.15,21.38-4.56c1.8,2.81,3.39,6.55,4.73,11.76c0.47,1.84,0.88,3.73,1.24,5.66 c0.77-0.1,1.57-0.19,2.36-0.26c2.77-0.24,10.54-0.74,16.2-6.3c5.79-5.69,6.21-13.55,6.3-15.3c0.44-8.26-3.11-18.8-10.8-22.5 c-5.83-2.81-8.75,0.87-18.9,0.9c-15.22,0.04-18.2-9.41-30.6-8.1c-10.32,1.1-17.24,8.19-18,9c-8.25,8.71-3.74,15.83-11.7,25.2 c-3.58,4.22-7.25,6.02-10.38,7.41c-3.57,1.58-6.43,2.62-7.62,6.09C326.93,795.76,330.27,804.37,336.46,810.51z" class="st4"/><path d="M345.03,816.33c19.86,8.13,36.72-18.28,66.94-22.24c-0.36-1.93-0.77-3.82-1.24-5.66 c-1.33-5.21-2.92-8.96-4.73-11.76c-8.7,1.41-15.9,3.1-21.38,4.56c-7.88,2.11-11.78,3.64-13.5,7.2c-2.27,4.71,1.32,8.69-0.9,12.6 c-1.37,2.39-5.03,4.96-15.89,4.51c-0.1,0-0.21,0-0.31-0.01c-0.34-0.08-4.26-0.92-7.2,1.8c-0.68,0.63-1.22,1.37-1.63,2.19 C344.21,811.56,344.1,814.05,345.03,816.33z" class="st9"/><path d="M457.9,1356.33c1.2-10.2,2.4-20.4,3.6-30.6c-67.01-30.75-80.37-52.74-79.2-67.5c1.08-13.64,14.44-19.26,27.9-38.7 c19.6-28.32,22-60.78,20.7-84.6c-27.71,0.14-55.42,0.29-83.13,0.43c-8.13,18.03-18.87,44.26-28.47,76.97 c-10.15,34.58-15.23,51.87-12.6,65.7C317.76,1336.14,444.89,1354.56,457.9,1356.33z"/><path d="M422.8,1134.93c-25.8,0-51.6,0-77.4,0c-12.09-42.89-15.95-79.35-17.1-105.3c-1.43-32.25,1.09-53.51,3.6-73.8 c7.55-61,20.36-71.36,25.2-74.7c12.41-8.57,30.62-11.09,45-4.5c4.82,2.21,16.43,8.74,27,36.9c5.97,15.89,8.67,30.84,9.9,77.4 c1.17,44.24,1.76,71.27-3.6,108.9c-2.07,14.54-4.46,26.59-6.3,35.1h-6.34" class="st11"/><path d="M394.9,1365.33H430v-230.4c-27.9,0-55.8,0-83.7,0c2.72,36.44,8.1,78.03,18,123.3 C373.06,1298.26,383.81,1334.09,394.9,1365.33z" class="st4"/><path d="M445.3,1008.03c0.68,4.83,1.23,8.41,1.68,11.2c1.26,7.83,1.39,8.46,1.67,10.69 c0.49,3.94,0.88,9.63,0.25,16.81c-7.33,30.17-15.21,54.17-21.29,71.01c-13.74,38.06-22.8,52.12-25.51,51.39 c-0.1-0.03-0.31-0.11-0.34-0.12c-0.78-0.41-1.18-1.78-5.06-7.08c-2.78-3.8-5.31-6.83-7.2-9c3.55-19.21,7.15-38.41,10.8-57.6 c3.26-17.11,6.56-34.21,9.9-51.3c-4.4-8.7-9.45-20.86-12.6-36c-3.3-15.86-3.39-29.61-2.7-39.6H439c0.92,4.43,2.27,11.3,3.6,19.8 C443.82,996.06,443.82,997.54,445.3,1008.03z" class="st12"/><path d="M398.5,901.85c-16.34,20.08-11.17,58.92-9.9,67.47c5.96,1.69,13.58,3.24,22.5,3.6 c14.04,0.57,25.58-2.05,33.3-4.5c0.92-8.07,4.97-48.39-13.5-67.5c-2.99-3.09-9.14-9.45-17.1-9 C406.23,892.35,401.07,898.7,398.5,901.85z" class="st13"/><path d="M345.03,815.43c0.12,0.7,1.41,8.23,6.3,9c2.46,0.39,4.57-1.13,5.4-1.8c1.62,4.01,3.62,9.5,5.4,16.2 c0.78,2.97,1.94,7.37,2.7,12.6c0.81,5.6,1.42,13.93,0,24.3c-0.2,2.53-0.95,4.82-2.7,6.3c-0.2,0.17-0.31,0.24-0.31,0.37 c0.08,2.33,41.71,2.33,41.71,2.33c-1.92-3.59-3.82-7.54-5.63-11.85c-3.23-7.75-5.44-15.01-6.97-21.45c2.93,0.85,5.2,0.68,6.93,0.22 c13.74-3.72,18.64-33.91,14.11-58.46c-0.36-1.93-0.77-3.82-1.24-5.66c-1.33-5.21-2.92-8.96-4.73-11.76 c-8.7,1.41-15.9,3.1-21.38,4.56c-7.88,2.11-11.78,3.64-13.5,7.2c-2.27,4.71,1.32,8.69-0.9,12.6c-1.37,2.39-5.03,4.96-15.89,4.51 v0.09c-0.23-0.04-1.38-0.22-2.82-0.04c-0.35,0.04-2.85,0.44-4.61,2.12c-0.96,0.93-1.52,2.06-1.82,3.21 C344.53,812.25,344.89,814.53,345.03,815.43z" class="st12"/><path d="M532.6,801.93" class="st9"/><path d="M470.5,819.03" class="st9"/><path d="M321.63,797.43" class="st9"/><path d="M438.63,816.33" class="st9"/><path d="M430,1365.33c0.96,4.73,1.74,10.51,1.8,17.1c0.05,5.05-0.34,9.59-0.9,13.5c-11.4,0-22.8,0-34.2,0 c-12,0-24,0-36,0c0.37-3.03,1.47-8.69,5.4-14.4c3.93-5.72,8.67-8.57,11.72-10.37c4.29-2.52,9.24-4.44,17.08-5.83 C402.21,1364.03,414.32,1362.79,430,1365.33z" class="st14"/><path d="M461.23,1325.78c4.69,1.14,10.25,2.89,16.24,5.64c4.59,2.11,8.53,4.38,11.84,6.55 c-4.85,10.32-9.69,20.64-14.54,30.96c-5.1,10.86-10.2,21.72-15.31,32.58c-2.59-1.62-7.23-5.03-10.74-11.01 c-3.5-5.98-4.07-11.49-4.4-15.01c-0.46-4.96-0.09-10.26,1.98-17.94C448.24,1350.38,452.27,1338.89,461.23,1325.78z" class="st14"/></g><g id="person_female"><path d="M1387.5,1330.5c-14.67-6-29.33-12-44-18c18.85-23.42,32.07-44.37,41-60c22.56-39.48,30.16-66.74,47.96-67.91 c8.25-0.54,18.2,4.56,21.82,12.41c8.15,17.68-20.48,39.12-47.7,90.43C1397.2,1305.13,1391.13,1320.43,1387.5,1330.5z" class="st15"/><path d="M1673.5,1141.73c0.5,54.05-67.96,105.6-107.1,92.7c-21.16-6.98-36.58-33.71-40.5-40.5 c-12.79-22.17-11.93-38.69-27.9-47.7c-10.14-5.71-13.38-0.69-25.01-4.37c0.65-3.26,1.38-6.02,1.93-8.09 c1.78-6.7,3.78-12.2,5.4-16.2c0.83,0.67,2.94,2.19,5.4,1.8c4.89-0.77,6.18-8.3,6.3-9c0.14-0.9,0.5-3.18-0.07-5.4 c-0.3-1.15-0.85-2.29-1.82-3.21c-1.75-1.68-4.26-2.08-4.61-2.12c-1.44-0.19-2.58-0.01-2.82,0.04v-0.09 c-0.36,0.02-0.72,0.03-1.06,0.03c-5.59,5.71-11.6,9.08-15.14,7.93c-7.86-2.56-2.81-27.18-14.08-32.27c-0.01,0-0.01-0.01-0.02-0.01 c-0.1-0.05-0.2-0.08-0.3-0.13c-0.91-0.37-1.79-0.57-2.65-0.64c-6.42-0.49-12.03,6.07-18.95,3.34c-0.81-0.32-1.59-0.75-2.34-1.28 c-0.67,1.74-1.28,3.69-1.85,5.91c-0.47,1.84-0.88,3.73-1.24,5.66c-0.26,1.41-0.49,2.84-0.68,4.28c-0.05-0.04-0.11-0.11-0.19-0.18 c-8.57-8.24-14.28-24.38-9-36c7.12-15.67,31.08-16.14,34.2-16.2c19.16-0.38,20.87,10.6,46.8,14.4c17.23,2.53,22.51-1.43,32.4,4.5 c9.1,5.46,9.27,11.58,18.9,22.5c2.06,2.33,15.8,18.22,31.5,22.5c27.32,7.44,43.88-22.67,65.7-16.2 C1663.16,1093.2,1673.31,1121.26,1673.5,1141.73z" class="st16"/><g><path d="M1500.25,1295.27c-2.89,31-12.07,55.75-18.15,71.88c-1.27,3.36-2.34,6.06-2.99,7.67 c-15.29-6.5-72.28-30.46-81.89-28.56c-0.33,0.07-0.67,0.14-0.67,0.14c-6.27,1.24-11.86,3.31-16.73,5.75 c-5.05,1.95-10.02,4.09-14.86,6.35c19.17-31.96,28.75-59.76,33.98-79.6c13.96-52.9,7.23-87.93,31.57-102.74 c13.73-8.35,32.77-7.51,45,0c18.31,11.23,20.86,37.09,24.3,72C1500.77,1257.95,1502.25,1273.81,1500.25,1295.27z" class="st5"/><path d="M1500.25,1295.27c-2.89,31-12.07,55.75-18.15,71.88c-1.27,3.36-2.34,6.06-2.99,7.67 c-15.29-6.5-72.28-30.46-81.89-28.56c-0.33,0.07-0.67,0.14-0.67,0.14c-6.27,1.24-11.86,3.31-16.73,5.75 c-5.05,1.95-10.02,4.09-14.86,6.35c19.17-31.96,28.75-59.76,33.98-79.6c13.96-52.9,7.23-87.93,31.57-102.74 c13.73-8.35,32.77-7.51,45,0c18.31,11.23,20.86,37.09,24.3,72C1500.77,1257.95,1502.25,1273.81,1500.25,1295.27z" class="st17"/><path d="M1500.25,1295.27c-2.89,31-12.07,55.75-18.15,71.88c-1.27,3.36-2.34,6.06-2.99,7.67 c-15.29-6.5-72.28-30.46-81.89-28.56c-0.33,0.07-0.67,0.14-0.67,0.14c-6.27,1.24-11.86,3.31-16.73,5.75 c-5.05,1.95-10.02,4.09-14.86,6.35c19.17-31.96,28.75-59.76,33.98-79.6c13.96-52.9,7.23-87.93,31.57-102.74 c13.73-8.35,32.77-7.51,45,0c18.31,11.23,20.86,37.09,24.3,72C1500.77,1257.95,1502.25,1273.81,1500.25,1295.27z" class="st18"/></g><path d="M1605.1,1358.63c-0.06,2.97-0.67,7.28-3.6,10.8c-3.85,4.61-9.59,5.27-17.1,6.3c-6.63,0.9-16.37,2.32-28.8,4.5 c0.48,0.12,3.78,1.08,5.4,4.5c1.67,3.51,0.2,6.77,0,7.2c-2.46,0.33-8.28,0.74-13.5-2.7c-4.57-3.03-7.55-8.27-8.38-14.39 c-29.14-21.98-60.18-54.49-76.22-99.91c-5.63-15.95-22.95-64.97-1.8-83.7c5.48-4.86,15.55-9.45,24.3-6.3 c20.44,7.33,13.03,49.38,28.8,98.1c6.39,19.74,19.06,48.19,47.12,79.25c-0.12,0.08-0.25,0.16-0.37,0.23 c2.96-0.04,5.97-0.14,9.05-0.28C1582.81,1361.63,1594.56,1360.3,1605.1,1358.63z" class="st15"/><g><path d="M1383.91,1346.74c-9.27,4.63-15.97,10.57-19.95,14.58c1.77-2.77,3.46-5.52,5.09-8.23 C1373.9,1350.82,1378.86,1348.69,1383.91,1346.74z" class="st19"/><path d="M1383.91,1346.74c-9.27,4.63-15.97,10.57-19.95,14.58c1.77-2.77,3.46-5.52,5.09-8.23 C1373.9,1350.82,1378.86,1348.69,1383.91,1346.74z" class="st17"/><path d="M1383.91,1346.74c-9.27,4.63-15.97,10.57-19.95,14.58c1.77-2.77,3.46-5.52,5.09-8.23 C1373.9,1350.82,1378.86,1348.69,1383.91,1346.74z" class="st17"/></g><path d="M1362.19,1388.05c-8.56-2.89-14.34-8.76-38.87-33.53c-12.25-12.36-23.41-25.4-32.33-37.56 c-8.3,10.02-16.82,21.19-25.26,33.59c-14.31,21.02-25.43,41.21-34.08,59.36c-7.11-4.05-14.23-8.1-21.34-12.16 c1.99-15.93,6.29-36.78,15.86-59.69c13.49-32.26,31.8-55.12,45.15-69.2c0.13-0.18,0.34-0.46,0.63-0.79 c13.34-15.16,77.47,6.85,113.17,49.39c2.92,3.48,36.74,44.5,23.4,63.9C1400.36,1393.2,1377.29,1393.13,1362.19,1388.05z"/><path d="M1480.51,1372.35c-0.04,9.44-12.46,16.41-26.1,24.3c-7.34,4.25-17.82,8.18-49,15.3 c-16.97,3.87-33.94,6.45-48.98,7.6c4.12,12.34,9.11,25.48,15.17,39.19c10.29,23.26,21.55,43.36,32.4,60.3 c-7.2,3.9-14.4,7.8-21.6,11.7c-12.47-10.11-27.91-24.77-42.3-45c-20.27-28.49-30.01-56.11-34.91-74.89 c-0.16-0.39-0.27-0.71-0.34-0.95c-4.4-14.34,25.51-40.05,63.3-57.72c4.84-2.27,9.81-4.4,14.86-6.35 c5.52-2.14,11.12-4.08,16.73-5.75c0,0,0.34-0.07,0.67-0.13C1411.06,1337.85,1480.59,1349.94,1480.51,1372.35z" class="st4"/><path d="M1403.35,1517.74c3.58,3.24,7.63,7.43,11.58,12.71c3.03,4.04,5.41,7.93,7.27,11.41 c-9.18,6.75-18.37,13.51-27.55,20.26c-9.67,7.11-19.34,14.22-29,21.33c-1.5-2.66-3.96-7.87-4.18-14.8 c-0.22-6.93,1.91-12.04,3.3-15.29c1.96-4.57,4.81-9.06,10.31-14.82C1380.19,1533.15,1389.21,1524.98,1403.35,1517.74z" class="st14"/><path d="M1234.47,1403.93c-1.81,4.48-4.34,9.72-7.93,15.26c-2.75,4.24-5.57,7.81-8.2,10.76 c-9.51-6.29-19.02-12.58-28.53-18.86c-10.01-6.62-20.02-13.24-30.03-19.86c1.98-2.33,6.02-6.43,12.45-9.03 c6.43-2.6,11.96-2.37,15.49-2.18c4.97,0.26,10.16,1.39,17.47,4.56C1212.01,1387.52,1222.79,1393.16,1234.47,1403.93z" class="st14"/><path d="M1492.02,1110.36c-0.12,0.7-1.41,8.23-6.3,9c-2.46,0.39-4.57-1.13-5.4-1.8c-1.62,4.01-3.62,9.5-5.4,16.2 c-0.55,2.07-1.28,4.83-1.93,8.09c-0.28,1.41-0.55,2.93-0.77,4.51c-0.81,5.6-1.42,13.93,0,24.3c0.13,1.57,0.46,3.04,1.11,4.28 c0.4,0.77,0.93,1.45,1.59,2.02c0.2,0.17,0.31,0.24,0.31,0.37c-0.08,2.33-41.71,2.33-41.71,2.33c1.1-2.06,2.21-4.25,3.28-6.55 c0.8-1.7,1.59-3.47,2.36-5.3c3.23-7.75,5.44-15.01,6.97-21.45c-2.93,0.85-5.2,0.68-6.93,0.22c-12.95-3.5-18.05-30.53-14.8-54.17 c0.2-1.44,0.42-2.87,0.68-4.28c0.36-1.93,0.77-3.82,1.24-5.66c0.57-2.22,1.18-4.18,1.85-5.91c0.75,0.53,1.53,0.96,2.34,1.28 c6.91,2.74,12.53-3.83,18.95-3.34c1.03,0.26,2.02,0.52,2.95,0.77c0.01,0,0.01,0.01,0.02,0.01c11.28,5.09,6.23,29.71,14.08,32.27 c3.54,1.15,9.55-2.22,15.14-7.93c0.34,0,0.7-0.01,1.06-0.03v0.09c0.23-0.05,1.38-0.22,2.82-0.04c0.35,0.05,2.85,0.44,4.61,2.12 c0.96,0.93,1.52,2.06,1.82,3.21C1492.52,1107.18,1492.16,1109.46,1492.02,1110.36z" class="st15"/></g><g id="person_third"><path d="M757.68,1398.83c-10.7-12.79-29.74-13.98-38-14c-3,9.67-6,19.33-9,29c20.35,6.69,34.06,5.37,41,4 c6.88-1.36,9.95-3.31,11-6C764.55,1407.04,759.58,1401.1,757.68,1398.83z" class="st14"/><path d="M629.43,1130.68c-15.79,6.18-33.39,1.16-42.54-11.55c-7.46-10.35-8.33-24.45-2.43-36.46 c-9.97-17.11-8.47-37.6,3.04-50.44c11.18-12.47,27.35-12.76,30.39-12.76c1.35-2.66,7.53-14.06,21.27-18.84 c18.65-6.48,34.52,5.07,35.86,6.08c3.64-1.26,22.1-7.21,41.33,2.43c13.42,6.73,20.08,17.47,22.49,21.88 c1.89-0.21,16.32-1.64,24.92,7.9c9.4,10.43,8.53,30.32-5.47,44.36c18.91,8.18,27.02,27.99,21.88,41.33 c-5.89,15.27-30.2,24.8-51.05,12.15c-6.79,4.31-22.86,13.2-44.97,13.37C655.05,1150.35,635.14,1135.33,629.43,1130.68z" class="st20"/><path d="M577.16,1295.38c-15.66-47.06,35.09-114.99,92.38-117.29c65.08-2.62,120.05,80.2,101.49,126.41 c-13.71,34.14-65.77,43.87-96.02,43.15C644.04,1346.91,590.06,1334.13,577.16,1295.38z" class="st10"/><path d="M715.96,1113.57c-0.14,0.84-1.69,9.87-7.55,10.79c-2.95,0.46-5.48-1.36-6.48-2.16 c-1.94,4.8-4.34,11.4-6.48,19.43c-0.66,2.48-1.53,5.8-2.31,9.7c-0.33,1.69-0.66,3.51-0.93,5.41c-0.97,6.71-1.71,16.71,0,29.14 c0.15,1.88,0.55,3.65,1.33,5.14c0.49,0.92,1.11,1.74,1.91,2.42c0.24,0.2,0.38,0.29,0.37,0.44c-0.1,2.79-50.01,2.79-50.01,2.79 c1.32-2.47,2.64-5.09,3.93-7.86c0.96-2.04,1.91-4.15,2.83-6.36c3.87-9.29,6.52-18,8.35-25.72c-3.51,1.01-6.24,0.82-8.31,0.26 c-15.53-4.2-21.64-36.61-17.74-64.96c0.24-1.73,0.51-3.44,0.82-5.14c0.43-2.31,0.93-4.58,1.49-6.79c0.68-2.67,1.41-5.01,2.21-7.09 c0.9,0.64,1.83,1.15,2.81,1.53c8.29,3.28,15.02-4.6,22.72-4c1.24,0.31,2.42,0.63,3.54,0.92c0.01,0,0.01,0.01,0.02,0.01 c13.52,6.1,7.47,35.62,16.89,38.69c4.24,1.38,11.45-2.67,18.15-9.51c0.41,0,0.84-0.01,1.27-0.03v0.11 c0.28-0.05,1.65-0.27,3.38-0.04c0.42,0.05,3.42,0.53,5.53,2.55c1.15,1.11,1.82,2.47,2.18,3.85 C716.56,1109.76,716.13,1112.49,715.96,1113.57z" class="st21"/><path d="M611.11,1246.76h121.07c4.27,0,7.58,3.74,7.06,7.97c-2.86,23.42-5.73,46.84-8.59,70.25 c-0.44,3.57-3.47,6.25-7.06,6.25H616.17c-3.73,0-6.83-2.88-7.09-6.6c-1.68-23.42-3.37-46.84-5.05-70.25 C603.73,1250.26,606.99,1246.76,611.11,1246.76z" class="st6"/><path d="M714.23,1414.11l9.12-28.56c-48.58-46.07-91.51-63.22-117.9-70.5c-37.54-10.35-45.95-1.92-48.01,0.61 c-8.56,10.52,1.3,31.47,3.65,36.46C586.09,1405.28,686.57,1412.7,714.23,1414.11z"/><path d="M621.16,1413.35l-9.12-28.56c48.58-46.07,91.51-63.22,117.9-70.5c37.54-10.35,45.95-1.92,48.01,0.61 c8.56,10.52-1.3,31.47-3.65,36.46C749.3,1404.51,648.81,1411.94,621.16,1413.35z" class="st4"/><path d="M575,1398.59c10.7-12.41,29.74-13.57,38-13.59c3,9.38,6,18.77,9,28.15c-20.35,6.49-34.06,5.21-41,3.88 c-6.88-1.32-9.95-3.22-11-5.82C568.13,1406.56,573.1,1400.79,575,1398.59z" class="st14"/><circle cx="671" cy="1287" r="8" class="st7"/></g><g id="skizze" class="st22"><g class="st23"><g><path d="M676.89,839.18c-10.39,14.94-15.93,33.04-16.21,51.2c-0.14,9.07,1.03,18.19,3.55,26.91c2.51,8.67,6.18,17.98,12.99,24.2 c12.99,11.87,33.43,8.03,45.93-2.49c7.02-5.91,12.23-13.71,16.27-21.89c4.14-8.39,7.37-17.31,9.93-26.31 c5.09-17.94,7.34-37.73,1.42-55.76c-2.8-8.52-7.39-16.91-14.23-22.84c-6.83-5.92-15.49-8.47-24.41-6.8 c-8.84,1.65-16.8,6.92-23.2,13.05c-6.86,6.57-12.47,14.68-16.6,23.22c-7.98,16.5-10.32,35.86-3.01,53.02 c6.31,14.8,19.6,27.56,35.99,29.81c14.83,2.04,30.91-4.62,39.27-17.19c2.02-3.03,3.5-6.42,4.4-9.95c0.47-1.87-2.42-2.67-2.89-0.8 c-3.53,13.94-16.96,23.39-30.83,25.04c-15.4,1.84-29.7-6.55-38.23-19.06c-4.42-6.49-7.38-13.93-8.59-21.69 c-1.36-8.75-0.4-17.82,2.09-26.28c2.58-8.78,6.84-17.01,12.22-24.39c5.19-7.11,11.56-13.52,19.3-17.83 c7.33-4.07,15.94-5.96,24.03-3.04c8.01,2.89,13.87,9.89,17.8,17.18c8.52,15.81,8.74,34.58,5.39,51.85 c-1.73,8.9-4.37,17.6-7.59,26.07c-3.09,8.12-6.8,16.1-11.95,23.14c-4.91,6.72-11.33,12.57-19.16,15.64 c-7.24,2.85-15.47,3.66-22.92,1.1c-8.32-2.86-13.48-10.02-16.91-17.79c-3.46-7.82-5.61-16.3-6.52-24.79 c-1.85-17.13,1.17-34.82,8.89-50.25c1.87-3.74,4.01-7.33,6.4-10.76C680.58,839.1,677.98,837.6,676.89,839.18L676.89,839.18z"/></g></g><g class="st23"><g><path d="M715.18,808.65c2.11,11.87,4.23,23.75,6.34,35.62c0.34,1.9,3.23,1.09,2.89-0.8c-2.11-11.87-4.23-23.75-6.34-35.62 C717.73,805.95,714.84,806.76,715.18,808.65L715.18,808.65z"/></g></g><g class="st23"><g><path d="M719.37,963.59c0.11-20.74,0.23-41.49,0.34-62.23c0.11-20.74,0.23-41.49,0.34-62.23c0.06-11.66,0.13-23.33,0.19-34.99 c0.01-1.63-2.69-2.11-2.95-0.4c-2.79,18.64-4.11,37.47-3.87,56.31c0.02,1.93,3.02,1.93,3,0c-0.23-18.57,1.01-37.15,3.77-55.51 c-0.98-0.13-1.96-0.27-2.95-0.4c-0.11,20.74-0.23,41.49-0.34,62.23c-0.11,20.74-0.23,41.49-0.34,62.23 c-0.06,11.66-0.13,23.33-0.19,34.99C716.36,965.52,719.36,965.53,719.37,963.59L719.37,963.59z"/></g></g><g class="st23"><g><path d="M712.68,931.2c1.86,42.85,3.73,85.7,5.59,128.55c1.86,42.63,3.71,85.27,5.57,127.9c1.05,24.05,2.09,48.1,3.14,72.15 c0.08,1.92,3.08,1.93,3,0c-1.86-42.85-3.73-85.7-5.59-128.55c-1.86-42.63-3.71-85.27-5.57-127.9 c-1.05-24.05-2.09-48.1-3.14-72.15C715.6,929.27,712.6,929.26,712.68,931.2L712.68,931.2z"/></g></g><g class="st23"><g><path d="M709.2,1181.3c-9.71,29.74-19.43,59.49-29.14,89.23s-19.43,59.49-29.14,89.23c-2.67,8.18-5.28,16.38-8.02,24.54 c-2.18,6.49-4.81,13.11-10.17,17.64c0.79,0.61,1.57,1.21,2.36,1.82c11.5-25.12,22.26-50.58,32.27-76.33 c9.95-25.63,19.15-51.56,27.58-77.73c4.77-14.83,9.3-29.73,13.57-44.71c0.39-1.36-1.07-2.22-2.2-1.69 c-9.4,4.33-15.85,13.78-16.75,24.06c-0.17,1.92,2.83,1.91,3,0c0.81-9.26,6.86-17.59,15.26-21.46c-0.73-0.56-1.47-1.13-2.2-1.69 c-7.55,26.44-15.87,52.66-24.97,78.61c-9.09,25.95-18.95,51.63-29.56,77c-5.96,14.25-12.16,28.4-18.59,42.45 c-0.71,1.55,1.02,2.95,2.36,1.82c4.82-4.06,7.63-9.8,9.77-15.61c2.52-6.83,4.61-13.85,6.87-20.77 c4.91-15.03,9.82-30.06,14.72-45.09c9.76-29.9,19.53-59.8,29.29-89.71c5.53-16.93,11.06-33.86,16.58-50.79 C712.69,1180.26,709.8,1179.47,709.2,1181.3L709.2,1181.3z"/></g></g><g class="st23"><g><path d="M709.7,1179.53c3.48,13.99,9.07,27.42,13.84,41.01c4.8,13.67,9.4,27.42,13.8,41.22c8.81,27.61,16.84,55.47,24.06,83.54 c4.05,15.75,7.86,31.56,11.41,47.43c0.96-0.27,1.93-0.53,2.89-0.8c-7.44-22.02-14.89-44.03-22.33-66.05 c-7.42-21.94-14.84-43.88-22.25-65.81c-4.19-12.39-8.38-24.78-12.57-37.17c-0.61-1.82-3.36-1.09-2.89,0.8 c4.02,16.28,8.35,32.48,13.01,48.59c1.32,4.58,2.68,9.15,4.05,13.72c0.56,1.84,3.45,1.06,2.89-0.8 c-4.84-16.06-9.36-32.21-13.56-48.44c-1.19-4.62-2.36-9.24-3.5-13.87c-0.96,0.27-1.93,0.53-2.89,0.8 c7.44,22.02,14.89,44.03,22.33,66.05c7.42,21.94,14.84,43.88,22.25,65.81c4.19,12.39,8.38,24.78,12.57,37.17 c0.62,1.82,3.32,1.1,2.89-0.8c-6.33-28.28-13.46-56.39-21.38-84.27c-7.92-27.88-16.64-55.53-26.14-82.91 c-2.64-7.6-5.34-15.18-8.09-22.74c-2.78-7.67-5.53-15.36-7.5-23.28C712.13,1176.86,709.23,1177.66,709.7,1179.53L709.7,1179.53z"/></g></g><g class="st23"><g><path d="M709.48,963.19c-7.97,1.89-13.75,7.98-18.19,14.54c-2.45,3.61-4.54,7.43-6.66,11.24c-2.49,4.47-4.98,8.94-7.45,13.42 c-9.93,17.99-19.65,36.11-28.45,54.68c-8.72,18.41-16.56,37.28-22.72,56.71c-1.26,3.98-2.73,7.99-2.96,12.19 c-0.18,3.15,0.37,6.86,2.94,9c3.76,3.12,8.48,1.12,12.51-0.25c4.75-1.62,9.55-3.11,14.39-4.42c18.72-5.05,38.92-7.6,57.86-2.14 c2.33,0.67,4.63,1.47,6.89,2.36c1.79,0.71,2.57-2.19,0.8-2.89c-17.77-7.07-37.35-6.53-55.81-2.73 c-9.5,1.95-18.67,4.88-27.86,7.94c-1.98,0.66-4.33,1.38-6.28,0.24c-1.2-0.7-1.83-1.95-2.16-3.25c-0.82-3.27,0-6.78,0.94-9.92 c5.68-18.99,13.02-37.44,21.3-55.43c8.37-18.17,17.68-35.88,27.27-53.43c4.65-8.5,9.29-17.03,14.11-25.43 c3.79-6.61,8.23-13.67,15.07-17.49c1.66-0.93,3.41-1.59,5.26-2.03C712.16,965.64,711.36,962.75,709.48,963.19L709.48,963.19z"/></g></g><g class="st23"><g><path d="M721.36,960.4c8.41,10.08,18.44,18.8,29.59,25.72c5.7,3.54,11.8,6.84,18.41,8.26c6.26,1.35,12.62,0.71,18.59-1.57 c6.07-2.32,11.53-5.93,16.67-9.85c5.28-4.04,10.39-8.32,15.38-12.72c9.96-8.78,19.38-18.17,28.2-28.1 c9.97-11.22,19.16-23.13,27.51-35.61c0.8-1.2-0.84-2.96-2.05-2.05c-17.34,12.94-32.63,28.35-46.31,45.07 c-13.76,16.82-25.95,34.85-37.49,53.23c-6.53,10.4-12.87,20.93-19.19,31.46c-1,1.66,1.6,3.17,2.59,1.51 c11.13-18.55,22.31-37.09,34.53-54.94c12.1-17.67,25.25-34.68,40.28-49.96c8.44-8.58,17.45-16.59,27.1-23.79 c-0.68-0.68-1.37-1.37-2.05-2.05c-14.46,21.6-31.5,41.45-50.68,59c-4.74,4.33-9.6,8.53-14.58,12.58 c-4.92,4-9.96,7.91-15.56,10.93c-5.45,2.93-11.49,4.9-17.74,4.56c-6.56-0.35-12.74-3.14-18.37-6.34 c-12.45-7.09-23.53-16.48-32.71-27.47C722.24,956.8,720.13,958.93,721.36,960.4L721.36,960.4z"/></g></g><g class="st23"><g><path d="M1127.6,865.55c-19.57,2.45-38.28,11.58-51.81,26.02c-13.94,14.87-21.25,34.97-19.91,55.34 c0.67,10.2,3.44,20.28,8.44,29.21c4.7,8.39,11.36,15.52,19.28,20.95c15.51,10.63,35.85,14.57,53.87,8.58 c18.3-6.09,31.97-20.69,41.59-36.92c4.98-8.4,9.01-17.36,12.39-26.51c4.11-11.12,7.46-22.61,9.22-34.35 c1.77-11.76,1.91-23.81-0.72-35.46c-2.2-9.74-6.56-18.8-12.84-26.58c-5.86-7.27-13.4-13.3-22.03-16.93 c-9.06-3.81-19.01-4.53-28.51-1.97c-10.34,2.78-19.66,8.9-27.45,16.12c-6.83,6.33-12.51,13.97-16.74,22.26 c-8.07,15.79-11.54,35.23-4.74,52.11c1.62,4.01,3.73,7.77,6.37,11.2c0.5,0.65,1.28,0.98,2.05,0.54c0.64-0.36,1.03-1.41,0.54-2.05 c-10.72-13.93-11.58-32.23-6.45-48.55c5.55-17.64,17.64-33.24,33.51-42.77c8.58-5.15,18.43-8.23,28.5-7.2 c8.88,0.91,17.31,4.97,24.16,10.6c7.05,5.79,12.69,13.21,16.54,21.47c4.53,9.72,6.19,20.66,6.12,31.32 c-0.08,11.63-2.27,23.14-5.46,34.29c-2.79,9.75-6.24,19.35-10.54,28.54c-7.69,16.47-18.45,32.59-34.22,42.28 c-7.68,4.72-16.39,7.72-25.41,8.29c-9.01,0.57-18.06-1.07-26.41-4.47c-8.32-3.39-15.93-8.62-22.03-15.21 c-6.55-7.07-11.16-15.76-13.72-25.02c-5.22-18.83-2.13-39.69,8.34-56.19c10.12-15.96,26.47-27.57,44.47-33.01 c4.44-1.34,8.99-2.33,13.59-2.91C1129.49,868.31,1129.52,865.31,1127.6,865.55L1127.6,865.55z"/></g></g><g class="st23"><g><path d="M1129.08,863.48c7.68-12.83,16.24-27.36,14.08-42.93c-1.68-12.13-10.17-24.18-23.29-24.86 c-6.92-0.36-13.68,2.57-18.92,6.96c-5.6,4.7-9.26,11.3-11.56,18.15c-2.43,7.24-3.52,14.98-3.93,22.58 c-0.42,7.74,0.07,15.6,1.97,23.14c3.48,13.82,12.27,26.29,25.59,32.11c6.21,2.71,13.02,3.8,19.73,2.6 c6.31-1.13,12.1-4.33,16.78-8.65c9.57-8.83,14.67-22.03,14.7-34.93c0.02-12.85-4.64-25.81-13.23-35.42 c-8.24-9.21-19.92-14.47-32.31-14c-11.55,0.44-23.31,5.48-30.56,14.68c-1.76,2.23-3.23,4.63-4.37,7.23 c-0.77,1.75,1.82,3.28,2.59,1.51c4.38-9.99,13.71-16.68,24.14-19.26c10.9-2.7,22.41-0.76,31.58,5.79 c9.71,6.93,15.94,18.05,18.22,29.63c2.36,11.98,0.24,24.61-6.4,34.91c-6.61,10.25-17.7,17.23-30.18,15.82 c-12.89-1.46-23.92-10.92-29.54-22.26c-6.44-13-6.86-28.37-4.72-42.47c2.01-13.26,7.3-27.72,20.61-33.32 c5.68-2.39,12.21-2.58,17.7,0.44c4.92,2.7,8.48,7.45,10.5,12.62c5.17,13.22,0.25,26.93-6.18,38.76 c-1.78,3.27-3.68,6.46-5.59,9.65C1125.5,863.62,1128.09,865.13,1129.08,863.48L1129.08,863.48z"/></g></g><g class="st23"><g><path d="M1143.7,882.71c0.32,48.53,0.64,97.05,0.96,145.58c0.32,48.28,0.64,96.56,0.96,144.84c0.18,27.23,0.36,54.47,0.54,81.7 c0.01,1.93,3.01,1.93,3,0c-0.32-48.53-0.64-97.05-0.96-145.58c-0.32-48.28-0.64-96.56-0.96-144.84 c-0.18-27.23-0.36-54.47-0.54-81.7C1146.68,880.78,1143.68,880.77,1143.7,882.71L1143.7,882.71z"/></g></g><g class="st23"><g><path d="M1150.36,1180.56c-13.37,12.69-25.08,27.12-34.8,42.79c-9.72,15.66-17.46,32.57-22.95,50.17 c-3.11,9.97-5.49,20.16-7.1,30.48c-0.27,1.71,1.7,2.55,2.74,1.16c10.92-14.59,20.66-30.04,29.1-46.18 c8.47-16.19,15.66-33.06,21.45-50.38c3.26-9.74,6.07-19.63,8.44-29.63c-0.96,0-1.93,0-2.89,0c4.11,20.09,9.28,39.97,15.5,59.52 c6.21,19.52,13.45,38.71,21.67,57.48c4.64,10.59,9.6,21.05,14.87,31.35c0.88,1.72,3.47,0.2,2.59-1.51 c-9.28-18.15-17.61-36.78-24.91-55.81c-7.33-19.08-13.65-38.54-18.92-58.28c-2.97-11.1-5.6-22.29-7.9-33.54 c-0.3-1.46-2.56-1.4-2.89,0c-4.18,17.66-9.77,34.97-16.7,51.74c-6.94,16.78-15.25,33-24.78,48.45 c-5.35,8.68-11.1,17.12-17.22,25.29c0.91,0.39,1.83,0.77,2.74,1.16c2.83-18.09,8-35.82,15.36-52.59 c7.3-16.64,16.68-32.41,27.91-46.69c6.37-8.1,13.33-15.73,20.81-22.83C1153.88,1181.35,1151.76,1179.23,1150.36,1180.56 L1150.36,1180.56z"/></g></g><g class="st23"><g><path d="M353.58,706.5c11.47,1.32,23.64,3.78,32.54,11.67c3.83,3.4,6.97,7.67,8.47,12.61c1.42,4.69,1.57,10.01,4.89,13.9 c3.65,4.28,10.38,4.46,14.44,0.68c1.42-1.32-0.71-3.43-2.12-2.12c-1.65,1.53-4,2.14-6.2,1.72c-2.34-0.45-4.03-2.05-5.1-4.12 c-1.1-2.14-1.55-4.59-2.05-6.93c-0.53-2.44-1.15-4.82-2.16-7.11c-4.23-9.58-13.41-15.92-23.03-19.28 c-6.35-2.22-13.03-3.26-19.68-4.03C351.66,703.28,351.68,706.28,353.58,706.5L353.58,706.5z"/></g></g><g class="st23"><g><path d="M347.5,730.67c-2.06,1.85-5.6,0.37-7.72-0.64c-2.52-1.21-4.8-2.85-6.78-4.82c-3.88-3.89-6.5-8.98-7.37-14.4 c-0.94-5.85,0.23-12.03,2.88-17.29c2.57-5.11,6.99-10.92,12.83-12.36c3.65-0.9,7.49,0.69,10.86,1.98 c3.66,1.4,7.18,3.17,10.54,5.19c1.66,1,3.17-1.59,1.51-2.59c-3.33-2.01-6.81-3.73-10.41-5.17c-3.52-1.4-7.5-3.01-11.36-2.63 c-6.89,0.68-12.33,6.67-15.62,12.32c-3.44,5.91-5.14,12.96-4.34,19.78c0.75,6.39,3.62,12.42,8.11,17.04 c2.5,2.58,5.51,4.68,8.82,6.08c3.27,1.39,7.27,2.25,10.18-0.35C351.07,731.5,348.94,729.38,347.5,730.67L347.5,730.67z"/></g></g><g class="st23"><g><path d="M354.87,689.58c9.19-7.76,21.6-13.17,33.81-10.96c5.4,0.98,10.64,3.28,14.77,6.94c2,1.77,3.73,3.82,5.07,6.13 c1.63,2.8,2.62,5.9,3.74,8.92c2.24,6,5.7,12.65,12.54,14.15c1.88,0.41,2.69-2.48,0.8-2.89c-6.42-1.41-9.05-8.23-11.06-13.73 c-1.11-3.06-2.24-6.15-4.01-8.9c-1.51-2.35-3.38-4.48-5.52-6.28c-9.32-7.83-22.15-9.52-33.6-6.01 c-6.9,2.12-13.18,5.85-18.67,10.5C351.27,688.7,353.4,690.82,354.87,689.58L354.87,689.58z"/></g></g><g class="st23"><g><path d="M427.09,756.04c6.49-4.91,11.37-11.7,13.77-19.5c2.15-6.98,2.14-15.92-4.11-20.85c-3.51-2.77-7.98-3.71-12.28-4.51 c-1.89-0.35-2.7,2.54-0.8,2.89c3.36,0.62,6.88,1.26,9.87,3.02c2.94,1.75,4.69,4.58,5.35,7.9c1.32,6.71-1.46,14.01-5.06,19.56 c-2.21,3.4-5.01,6.44-8.25,8.89C424.05,754.6,425.54,757.21,427.09,756.04L427.09,756.04z"/></g></g><g class="st23"><g><path d="M1445.28,1021.5c0.23,7.49,2.26,15.08,7.14,20.93c4.45,5.34,11.41,8.81,18.43,8.21c1.91-0.16,1.93-3.16,0-3 c-6.31,0.54-12.31-2.53-16.31-7.33c-4.33-5.2-6.05-12.16-6.26-18.81C1448.22,1019.57,1445.22,1019.57,1445.28,1021.5 L1445.28,1021.5z"/></g></g><g class="st23"><g><path d="M1446.14,1017.64c-3.13,4.28-2.26,9.89-0.41,14.51c2.01,5,4.92,9.92,8.44,14c3.68,4.27,8.45,7.14,13.89,8.58 c5.82,1.54,12.03,1.77,18.02,1.61c7.16-0.19,14.29-1.2,21.22-2.98c1.87-0.48,1.08-3.37-0.8-2.89 c-5.75,1.47-11.62,2.41-17.55,2.75c-5.55,0.32-11.26,0.29-16.75-0.66c-5.11-0.88-9.99-2.72-13.81-6.32 c-3.62-3.41-6.28-7.79-8.52-12.18c-2.28-4.46-4.44-10.4-1.15-14.9C1449.88,1017.59,1447.27,1016.1,1446.14,1017.64 L1446.14,1017.64z"/></g></g><g class="st23"><g><path d="M1498.65,1054.32c-2.77,5.07-2.94,11.33-0.26,16.48c2.42,4.65,7.1,8.04,12.25,8.98c1.89,0.34,2.7-2.55,0.8-2.89 c-4.33-0.79-8.16-3.42-10.29-7.3c-2.33-4.23-2.2-9.54,0.1-13.75C1502.17,1054.14,1499.58,1052.63,1498.65,1054.32 L1498.65,1054.32z"/></g></g><g class="st23"><g><path d="M1497.67,1051.93c-1.89,0.27-2.99,1.94-3.61,3.6c-0.81,2.17-1.2,4.57-1.56,6.85c-0.76,4.8-0.98,9.66-0.58,14.5 c0.39,4.64,1.14,9.53,2.87,13.87c1.58,3.96,4.97,7.37,9.56,6.52c1.9-0.35,1.09-3.24-0.8-2.89c-3.87,0.72-5.81-3.85-6.66-6.79 c-1.09-3.79-1.77-7.7-2.04-11.64c-0.27-3.95-0.15-7.94,0.4-11.86c0.28-1.99,0.67-3.97,1.16-5.91c0.3-1.18,0.59-3.16,2.05-3.36 C1500.37,1054.55,1499.56,1051.66,1497.67,1051.93L1497.67,1051.93z"/></g></g><g class="st23"><g><path d="M1505.11,1092.96c-0.85-0.11-1.22-1.88-1.38-2.5c-0.37-1.46-0.66-2.95-0.87-4.45c-0.42-3-0.5-6.05-0.3-9.07 c0.39-6.06,2.06-12.02,4.84-17.41c0.88-1.71-1.7-3.23-2.59-1.51c-3.29,6.39-5.13,13.46-5.33,20.65c-0.1,3.58,0.22,7.18,0.93,10.7 c0.57,2.81,1.36,6.18,4.7,6.6C1507.02,1096.2,1507,1093.2,1505.11,1092.96L1505.11,1092.96z"/></g></g><g class="st23"><g><path d="M1450.31,1064c-11.29-12.85-21.02-30.37-13.51-47.55c7.39-16.91,25.66-25.4,42.89-28.48c9.26-1.66,18.64-1.27,27.69,1.33 c8.58,2.46,16.59,6.62,23.94,11.65c15.72,10.74,28.08,25.49,41.1,39.19c12.22,12.87,25.59,25.44,41.98,32.79 c1.97,0.88,3.96,1.69,5.99,2.41c1.82,0.65,2.6-2.25,0.8-2.89c-17.44-6.24-31.61-18.83-44.28-31.96 c-13.57-14.06-26.16-29.35-42.16-40.79c-7.4-5.29-15.5-9.72-24.17-12.55c-9.05-2.96-18.55-3.87-27.99-2.63 c-17.96,2.36-37.25,10.48-46.58,26.88c-4.43,7.77-5.9,16.67-4.13,25.44c1.8,8.9,6.52,16.99,12.02,24.1 c1.38,1.78,2.81,3.51,4.3,5.2C1449.46,1067.58,1451.58,1065.45,1450.31,1064L1450.31,1064z"/></g></g><g class="st23"><g><path d="M1507.11,1125.45c6.76-2.46,14.19-2.32,20.93,0.17c7.45,2.75,12.75,8.29,16.65,15.06c4.36,7.57,7.77,15.73,11.45,23.64 c3.79,8.14,7.67,16.26,12.24,24c7.86,13.34,18.03,25.87,31.52,33.81c14.4,8.49,32.14,10.82,48.24,6.32 c15.43-4.3,29.26-14.06,40.84-24.89c10.96-10.25,20.22-22.34,27.32-35.55c7.21-13.4,12.27-28.03,14.59-43.08 c2.52-16.28,1.54-34.03-8.86-47.55c-4.49-5.84-10.45-10.4-17.47-12.72c-8.01-2.64-16.64-2.18-24.8-0.56 c-17.05,3.39-33.09,12.69-50.83,12.26c-4.17-0.1-8.26-0.86-12.17-2.33c-1.81-0.68-2.59,2.22-0.8,2.89 c16.59,6.23,34.08-0.71,49.92-5.91c15.04-4.93,32.8-9.08,46.67,1.1c12.97,9.53,17.16,26.36,16.5,41.69 c-0.67,15.46-5.06,30.99-11.5,45.01c-6.17,13.41-14.48,25.82-24.6,36.57c-10.55,11.21-23.27,21.32-37.53,27.35 c-15.31,6.48-32.87,6.7-48.12-0.15c-14.14-6.35-25.03-18.08-33.32-30.91c-9.45-14.64-15.86-30.93-23.53-46.52 c-3.5-7.1-7.56-14.05-14.2-18.64c-5.72-3.96-12.81-6.01-19.76-5.85c-3.46,0.08-6.9,0.71-10.16,1.89 C1504.51,1123.21,1505.29,1126.11,1507.11,1125.45L1507.11,1125.45z"/></g></g><g class="st23"><g><path d="M162.22,767.93c23.73,5.33,45.22,17.13,64.92,31.11c19.33,13.72,37.47,29.24,55.03,45.14 c34.15,30.92,65.65,64.76,94.11,100.98c28.58,36.38,54.08,75.2,76.13,115.87c22.98,42.38,42,86.73,57.24,132.46 c17.03,51.1,29.77,103.49,41.77,155.95c1.46,6.37,2.9,12.75,4.35,19.13c0.43,1.88,3.32,1.09,2.89-0.8 c-12.01-53.07-24.32-106.14-40.62-158.08c-14.71-46.88-33.03-92.51-55.62-136.16c-21.4-41.36-46.33-80.88-74.41-118.02 c-27.96-36.98-59-71.63-92.79-103.37c-17.22-16.17-35.1-31.73-53.79-46.18c-18.75-14.5-38.83-27.77-61.23-35.89 c-5.62-2.04-11.35-3.71-17.18-5.02C161.14,764.61,160.34,767.51,162.22,767.93L162.22,767.93z"/></g></g><g class="st23"><g><path d="M166.31,762.44c-17.48,0.7-35.03-0.19-52.33-2.76c-4.9-0.73-9.78-1.59-14.64-2.57c-1.89-0.38-2.69,2.51-0.8,2.89 c17.33,3.5,34.98,5.41,52.67,5.64c5.04,0.07,10.07-0.01,15.11-0.21C168.23,765.37,168.24,762.37,166.31,762.44L166.31,762.44z"/></g></g><g class="st23"><g><path d="M87.57,758.53c1.78,7.94,11.28,10.54,16.88,15.16c6.68,5.51,11.42,12.91,15.26,20.57c4.32,8.63,7.82,17.71,11.16,26.75 c3.61,9.77,6.85,19.68,9.71,29.69c3.25,11.38,6.01,22.9,8.29,34.51c0.37,1.89,3.26,1.09,2.89-0.8 c-4.03-20.6-9.61-40.89-16.7-60.64c-3.33-9.28-6.89-18.53-11.05-27.47c-3.6-7.75-7.91-15.35-13.92-21.49 c-3.32-3.4-7.12-5.99-11.18-8.4c-3.49-2.07-7.49-4.42-8.45-8.67C90.04,755.85,87.14,756.65,87.57,758.53L87.57,758.53z"/></g></g><g class="st23"><g><path d="M126.1,817.76c5.34,22.47,3.95,45.74,1.92,68.53c-2.04,22.88-4.86,45.96-2.41,68.93c2.26,21.24,9.66,41.33,21.35,59.2 c11.65,17.81,26.93,32.95,44.11,45.43c18.22,13.24,38.46,23.46,59.31,31.85c2.54,1.02,5.09,2.02,7.65,2.99 c1.81,0.69,2.59-2.21,0.8-2.89c-20.86-7.92-41.18-17.53-59.73-29.99c-17.66-11.86-33.62-26.4-46.02-43.75 c-12.11-16.95-20.58-36.28-23.71-56.93c-3.42-22.58-1.04-45.56,1.05-68.15c2.09-22.53,4.07-45.38,0.25-67.85 c-0.47-2.74-1.02-5.46-1.67-8.16C128.54,815.08,125.65,815.88,126.1,817.76L126.1,817.76z"/></g></g><g class="st23"><g><path d="M257.98,1089.42c2.59-4.96,9.26-5.85,14.05-3.8c6.16,2.63,9.54,9.47,11.63,15.43c5.15,14.65,5.94,30.3,5.74,45.69 c-0.2,15.63-1.4,31.28-0.31,46.9c1.02,14.6,4.41,28.8,10.54,42.1c5.86,12.74,14.06,24.42,24.09,34.23 c10.01,9.79,21.72,17.7,34.05,24.27c12.65,6.74,25.96,12.15,39.37,17.18c15.03,5.64,30.16,11.01,45.25,16.49 c32.12,11.66,64.24,23.32,96.36,34.98c3.96,1.44,7.92,2.87,11.87,4.31c1.82,0.66,2.6-2.24,0.8-2.89 c-32.58-11.83-65.16-23.65-97.74-35.48c-15.82-5.74-31.66-11.46-47.47-17.24c-13.61-4.97-27.17-10.13-40.2-16.51 c-12.83-6.28-25.18-13.77-35.9-23.27c-10.7-9.48-19.52-20.9-25.98-33.65c-6.62-13.06-10.54-27.28-11.82-41.85 c-1.4-15.96-0.19-31.98,0.08-47.96c0.26-15.5-0.36-31.29-5.17-46.15c-2.03-6.28-4.86-12.8-10.18-16.99 c-4.44-3.5-10.55-4.7-15.86-2.49c-2.48,1.03-4.53,2.8-5.78,5.19C254.5,1089.61,257.09,1091.13,257.98,1089.42L257.98,1089.42z"/></g></g></g><g id="light_bulb"><path d="M1002.34,1363.73c21.6,9.38,32.08-2.95,58.02,9.6c23.34,11.29,26.56,26.91,41.61,25.71 c16.53-1.32,34.16-21.87,33.2-38.6c-0.85-14.78-15.61-16.21-28.79-36.17c-16.83-25.5-4.09-39.83-16.73-62.06 c-14.61-25.71-54.31-47.14-88.98-34.22c-22.75,8.48-37.95,29.74-42.38,50.85C950.54,1315.64,975.5,1352.08,1002.34,1363.73z" class="st24"/><path d="M1138.73,1385.62c-26.58-18.42-51-39.95-72.59-64.03c-5.08-5.66-10.23-11.99-10.91-19.57 c-0.13-1.5-0.05-3.13,0.83-4.35c1.55-2.15,4.89-2.08,7.24-0.84c6.19,3.28,7.22,12.62,3.09,18.27c-4.14,5.65-11.82,7.8-18.79,7.04 c-6.96-0.76-13.4-3.96-19.59-7.25c-6.12-3.26-12.87-7.64-13.69-14.53c7.51,2.78,13.73,8.13,19.79,13.37 c30.82,26.67,61.65,53.35,92.47,80.02" class="st25"/><ellipse cx="1115.53" cy="1377.47" class="st6" rx="28.26" ry="12.47" transform="matrix(0.652 -0.7582 0.7582 0.652 -656.217 1325.1234)"/><ellipse cx="1120.16" cy="1381.45" class="st8" rx="28.26" ry="12.47" transform="matrix(0.652 -0.7582 0.7582 0.652 -657.6254 1330.0219)"/><ellipse cx="1124.8" cy="1385.44" class="st6" rx="28.26" ry="12.47" transform="matrix(0.652 -0.7582 0.7582 0.652 -659.0338 1334.9203)"/><ellipse cx="1129.04" cy="1389.09" class="st8" rx="28.26" ry="12.47" transform="matrix(0.652 -0.7582 0.7582 0.652 -660.3249 1339.4105)"/><ellipse cx="1133.06" cy="1393.4" class="st6" rx="28.26" ry="12.47" transform="matrix(0.652 -0.7582 0.7582 0.652 -662.1987 1343.9589)"/></g></svg>