<?xml version="1.0" encoding="utf-8"?>
<!-- Generator: Adobe Illustrator 24.2.1, SVG Export Plug-In . SVG Version: 6.00 Build 0)  -->
<svg id="logo" version="1.1" id="logo_x5F_withtype_xA0_Image_1_"
	 xmlns="http://www.w3.org/2000/svg" xmlns:xlink="http://www.w3.org/1999/xlink" x="0px" y="0px" viewBox="0 0 1161.7 415.2"
	 style="enable-background:new 0 0 1161.7 415.2;" xml:space="preserve">
	 <style type="text/css">
	#logo .st0{fill:#212529;}
	#logo .st1{fill:#F61A42;stroke:none;}
</style>
<g>
	<g>
		<path class="st0" d="M462.7,298.5l-84.6,1.5c0,0,59.6,111.9,202.7,111.9s202.8-113.3,202.8-113.3H699c0,0-44.6,42.2-118.2,42.2
			S462.7,298.5,462.7,298.5z"/>
	</g>
</g>
<g>
	<g>
		<path class="st0" d="M417.9,246.1c0,0-28.1-41.6-24.3-101.6s36-102.2,36-102.2l-28.1-28.1c0,0-44.8,49.8-55.9,116
			s9.1,121.8,9.1,121.8L417.9,246.1z"/>
	</g>
</g>
<g>
	<g>
		<path class="st0" d="M743.5,246.1c0,0,28.1-41.6,24.3-101.6s-36-102.1-36-102.1l28.1-28.1c0,0,44.8,49.8,55.9,116
			c11.1,66.2-9.1,121.8-9.1,121.8L743.5,246.1z"/>
	</g>
</g>
<g>
	<g>
		<polygon class="st1" points="0,286.1 483.1,278.2 580.8,54.9 580.8,0 438.4,244.3 		"/>
	</g>
</g>
<g>
	<g>
		<polygon class="st1" points="1161.7,286.1 678.5,278.2 580.9,54.9 580.8,0 723.3,244.3 		"/>
	</g>
</g>
</svg>
