<svg xmlns="http://www.w3.org/2000/svg" xmlns:xlink="http://www.w3.org/1999/xlink" style="enable-background:new 0 0 1161.7 415.2" id="logo_x5F_withtype_xA0_Image_1_" x="0" y="0" version="1.1" viewBox="0 0 1161.7 415.2" xml:space="preserve"><style type="text/css"/><g><g><path d="M462.7,298.5l-84.6,1.5c0,0,59.6,111.9,202.7,111.9s202.8-113.3,202.8-113.3H699c0,0-44.6,42.2-118.2,42.2 S462.7,298.5,462.7,298.5z" class="st0"/></g></g><g><g><path d="M417.9,246.1c0,0-28.1-41.6-24.3-101.6s36-102.2,36-102.2l-28.1-28.1c0,0-44.8,49.8-55.9,116 s9.1,121.8,9.1,121.8L417.9,246.1z" class="st0"/></g></g><g><g><path d="M743.5,246.1c0,0,28.1-41.6,24.3-101.6s-36-102.1-36-102.1l28.1-28.1c0,0,44.8,49.8,55.9,116 c11.1,66.2-9.1,121.8-9.1,121.8L743.5,246.1z" class="st0"/></g></g><g><g><polygon points="0 286.1 483.1 278.2 580.8 54.9 580.8 0 438.4 244.3" class="st1"/></g></g><g><g><polygon points="1161.7 286.1 678.5 278.2 580.9 54.9 580.8 0 723.3 244.3" class="st1"/></g></g></svg>